<svg width="27" height="27" viewBox="0 0 27 27" xmlns="http://www.w3.org/2000/svg">
  <title>
    Combined Shape
  </title>
  <defs>
    <linearGradient x1="100%" y1="0%" x2="0%" y2="100%" id="a">
      <stop stop-color="#05C8E5" offset="0%"/>
      <stop stop-color="#008BFF" offset="100%"/>
    </linearGradient>
  </defs>
  <path d="M1074.507 591.224c.658.66.657 1.728-.002 2.386l-6.75 6.75c-.424.44-1.05.615-1.64.46-.59-.154-1.052-.614-1.207-1.204-.154-.59.022-1.218.46-1.642l3.87-3.87h-2.675c-4.657.006-8.432 3.78-8.438 8.44 0 .93-.755 1.686-1.687 1.686s-1.688-.755-1.688-1.687c.008-6.52 5.292-11.806 11.813-11.813h2.675l-3.868-3.87c-.64-.662-.63-1.715.02-2.366.652-.65 1.704-.66 2.366-.02l6.75 6.75zm-4.57 11.32c.934 0 1.69.754 1.69 1.686v1.688c0 2.796-2.268 5.062-5.064 5.062h-13.5c-2.796 0-5.063-2.266-5.063-5.062v-11.813c0-2.796 2.267-5.063 5.063-5.063h1.687c.932 0 1.688.756 1.688 1.688 0 .932-.756 1.687-1.688 1.687h-1.687c-.932 0-1.688.756-1.688 1.688v11.813c0 .932.756 1.687 1.688 1.687h13.5c.932 0 1.688-.755 1.688-1.687v-1.688c0-.932.758-1.687 1.69-1.687z" transform="translate(-1048 -584)" fill="url(#a)"/>
</svg>
