<?xml version="1.0" encoding="UTF-8"?>
<svg width="29px" height="36px" viewBox="0 0 29 36" version="1.1" xmlns="http://www.w3.org/2000/svg" xmlns:xlink="http://www.w3.org/1999/xlink">
    <!-- Generator: Sketch 47.1 (45422) - http://www.bohemiancoding.com/sketch -->
    <title>delete-16</title>
    <desc>Created with Sketch.</desc>
    <defs>
        <linearGradient x1="29.7472745%" y1="-47.8959658%" x2="30.7914631%" y2="151.629571%" id="linearGradient-1">
            <stop stop-color="#FF272D" offset="0%"></stop>
            <stop stop-color="#C42482" offset="33.529769%"></stop>
            <stop stop-color="#4A1475" offset="100%"></stop>
        </linearGradient>
    </defs>
    <g id="Mobile-Wireframes" stroke="none" stroke-width="1" fill="none" fill-rule="evenodd">
        <g id="FF-57-Mobile-Landing" transform="translate(-1056.000000, -3609.000000)" fill-rule="nonzero" fill="url(#linearGradient-1)">
            <g id="FF-Focus-App-Features" transform="translate(-1.000000, 2967.000000)">
                <g id="delete-16" transform="translate(1057.000000, 642.000000)">
                    <path d="M10.0384615,27 C10.6544715,27 11.1538462,26.5006253 11.1538462,25.8846154 L11.1538462,12.5 C11.1538462,11.8839901 10.6544715,11.3846154 10.0384615,11.3846154 C9.42245163,11.3846154 8.92307692,11.8839901 8.92307692,12.5 L8.92307692,25.8846154 C8.92307692,26.5006253 9.42245163,27 10.0384615,27 Z" id="Shape"></path>
                    <path d="M14.5,27 C15.1160099,27 15.6153846,26.5006253 15.6153846,25.8846154 L15.6153846,12.5 C15.6153846,11.8839901 15.1160099,11.3846154 14.5,11.3846154 C13.8839901,11.3846154 13.3846154,11.8839901 13.3846154,12.5 L13.3846154,25.8846154 C13.3846154,26.5006253 13.8839901,27 14.5,27 Z" id="Shape"></path>
                    <path d="M18.9615385,27 C19.5775484,27 20.0769231,26.5006253 20.0769231,25.8846154 L20.0769231,12.5 C20.0769231,11.8839901 19.5775484,11.3846154 18.9615385,11.3846154 C18.3455285,11.3846154 17.8461538,11.8839901 17.8461538,12.5 L17.8461538,25.8846154 C17.8461538,26.5006253 18.3455285,27 18.9615385,27 Z" id="Shape"></path>
                    <path d="M26.7692308,4.69230769 L19.9653846,4.69230769 C19.437593,2.09310018 17.1522526,0.225178295 14.5,0.225178295 C11.8477474,0.225178295 9.56240698,2.09310018 9.03461538,4.69230769 L2.23076923,4.69230769 C0.998749404,4.69230769 0,5.6910571 0,6.92307692 C0,8.15509675 0.998749404,9.15384615 2.23076923,9.15384615 L2.23076923,29.2307692 C2.23076923,32.9268287 5.22701744,35.9230769 8.92307692,35.9230769 L20.0769231,35.9230769 C23.7729826,35.9230769 26.7692308,32.9268287 26.7692308,29.2307692 L26.7692308,9.15384615 C28.0012506,9.15384615 29,8.15509675 29,6.92307692 C29,5.6910571 28.0012506,4.69230769 26.7692308,4.69230769 L26.7692308,4.69230769 Z M14.5,2.46153846 C15.9013604,2.47607209 17.1428322,3.36857518 17.603,4.69230769 L11.397,4.69230769 C11.8571678,3.36857518 13.0986396,2.47607209 14.5,2.46153846 Z M22.3076923,29.2307692 C22.3076923,30.4627891 21.3089429,31.4615385 20.0769231,31.4615385 L8.92307692,31.4615385 C7.6910571,31.4615385 6.69230769,30.4627891 6.69230769,29.2307692 L6.69230769,9.15384615 L22.3076923,9.15384615 L22.3076923,29.2307692 Z" id="Shape"></path>
                </g>
            </g>
        </g>
    </g>
</svg>