<?xml version="1.0" encoding="UTF-8"?>
<svg width="35px" height="36px" viewBox="0 0 35 36" version="1.1" xmlns="http://www.w3.org/2000/svg" xmlns:xlink="http://www.w3.org/1999/xlink">
    <!-- Generator: Sketch 47.1 (45422) - http://www.bohemiancoding.com/sketch -->
    <title>Group 5</title>
    <desc>Created with Sketch.</desc>
    <defs>
        <linearGradient x1="100%" y1="-49.9334038%" x2="30.7914631%" y2="151.629571%" id="linearGradient-1">
            <stop stop-color="#FF272D" offset="0%"></stop>
            <stop stop-color="#C42482" offset="33.529769%"></stop>
            <stop stop-color="#4A1475" offset="100%"></stop>
        </linearGradient>
    </defs>
    <g id="Mobile-Wireframes" stroke="none" stroke-width="1" fill="none" fill-rule="evenodd">
        <g id="Focus-Feature_Speed" transform="translate(-1036.000000, -531.000000)">
            <g id="Group-4" transform="translate(1036.000000, 531.000000)">
                <g id="Group-5">
                    <ellipse id="Oval" fill="url(#linearGradient-1)" cx="17.5" cy="17.5454545" rx="17.5" ry="17.5454545"></ellipse>
                    <g id="Speed" transform="translate(4.846154, 4.307692)" fill="#FFFFFF">
                        <g id="Group-3">
                            <path d="M20.8372271,19.7572267 C22.2143385,18.0656875 22.9748712,16.1675286 23.1841479,13.9924048 C22.4831513,13.9924048 21.8003499,13.9896767 21.1176772,13.993509 C20.7542237,13.9955875 20.4380905,13.8876335 20.2123545,13.591442 C19.9641157,13.2656963 19.9108804,12.901043 20.0823522,12.5228143 C20.2585176,12.1341928 20.5659068,11.9210129 20.992304,11.9153619 C21.5922305,11.9073075 22.1924142,11.9128287 22.7924693,11.9125688 C22.8972684,11.9125039 23.0021318,11.9125688 23.1070595,11.9125688 C23.0901502,10.3124202 22.0549538,7.75958726 20.7575669,6.37534668 C20.2861639,6.85880136 19.8218976,7.34836174 19.3425865,7.822463 C18.9136175,8.24680929 18.3074544,8.2553183 17.8980951,7.86325429 C17.4684831,7.4518339 17.4623109,6.81118987 17.8907656,6.35676976 C18.1197162,6.11384076 18.3583109,5.88000537 18.594591,5.64409143 C18.8227701,5.41623183 19.0535853,5.19110031 19.3175118,4.93089348 C17.7037989,3.64843624 15.9157851,2.91503751 13.8657093,2.6992594 C13.8657093,3.22532409 13.8657736,3.73034359 13.865645,4.23542804 C13.865645,4.40859614 13.8680239,4.5818292 13.8646163,4.7549973 C13.8524648,5.38141634 13.4378333,5.81992266 12.8543017,5.82596341 C12.2600974,5.83219902 11.8200698,5.38641782 11.8102328,4.74980095 C11.8010388,4.15455997 11.8084969,3.55905916 11.8068896,2.96362331 C11.8066967,2.88970534 11.7956381,2.81585233 11.7873442,2.71484843 C9.69226269,2.94894364 7.86393662,3.75541594 6.21074719,5.13913689 C6.70002388,5.62480001 7.16936946,6.0931853 7.64173685,6.55858269 C7.89505488,6.80813702 8.02827187,7.10595238 7.9804372,7.46326586 C7.92591596,7.87098385 7.70660941,8.16970857 7.31975293,8.3091654 C6.92543835,8.45135031 6.55362664,8.38327823 6.24784478,8.08533296 C5.83134879,7.67962855 5.42687577,7.26138796 5.01648772,6.84925308 C4.9500721,6.78260999 4.87960597,6.72005902 4.81177589,6.65633888 C3.79065993,7.67053495 2.79114673,10.106775 2.63092629,11.9893448 C2.75224891,11.997594 2.87331435,12.0118839 2.99457268,12.0131181 C3.62658186,12.0196784 4.25968404,12.001816 4.89027876,12.0341632 C5.37351183,12.0589758 5.72867141,12.4488963 5.7911008,12.9423539 C5.84870815,13.3969689 5.57590907,13.8648346 5.13318117,14.0157883 C4.9553442,14.0764556 4.75545442,14.0884721 4.56514443,14.0910703 C3.92529139,14.0997742 3.28524546,14.094318 2.60900207,14.094318 C2.82290792,16.1888336 3.56331665,18.0143086 4.85453134,19.6486881 C4.93599173,19.5758094 5.0071008,19.5182599 5.07133042,19.4536954 C5.54228335,18.9802437 6.00346361,18.4966591 6.4843178,18.0337949 C6.89329139,17.640107 7.50987003,17.6574498 7.90611343,18.0475003 C8.29721332,18.4324193 8.322738,19.0676721 7.94372537,19.4846136 C7.04592514,20.4723084 6.14272423,21.4550666 5.23251527,22.4309396 C5.10399173,22.5687726 4.9331628,22.6754925 4.76529139,22.7644798 C4.53447623,22.8867887 4.32153479,22.8454128 4.12190218,22.6550319 C1.85689185,20.4953022 0.461456716,17.8706298 0.102439495,14.7403533 C-0.400724684,10.3531466 0.951633525,6.60223197 4.11495844,3.55788998 C6.14606751,1.60309103 8.5953442,0.502051089 11.3838999,0.143633392 C17.2613281,-0.611784844 23.1665956,3.03130566 25.0361341,8.73104342 C26.7630687,13.996367 25.6123362,18.6405978 21.7348344,22.5800746 C21.3443775,22.9766854 20.9631789,22.951678 20.5760652,22.5422712 C19.6737001,21.5880929 18.771335,20.6339146 17.8667839,19.6820097 C17.4088827,19.2001139 17.3742282,18.5766827 17.7875738,18.1482443 C18.2164142,17.7037622 18.8370434,17.7256518 19.3244556,18.2139131 C19.825498,18.7158798 20.3179251,19.2266802 20.8372271,19.7572267" id="Fill-1"></path>
                        </g>
                        <path d="M12.8167642,13.9032264 C13.2913214,13.8948681 13.6811456,13.4868792 13.6668933,13.0137217 C13.6527711,12.5483348 13.2660056,12.167902 12.8056357,12.166596 C12.3351784,12.16529 11.935267,12.5687081 11.9384559,13.0414738 C11.9417098,13.515219 12.3456562,13.9115847 12.8167642,13.9032264 M17.3964497,8.44970414 C16.9750621,9.47588 16.6158252,10.4289861 16.1952186,11.3539483 C15.7377772,12.3596856 15.2887961,13.3792009 14.7186375,14.3210103 C13.8198944,15.805586 11.7002011,15.7506042 10.7913055,14.2740602 C10.13726,13.2113821 10.406948,11.7988966 11.4678685,11.1435545 C12.2568231,10.6561618 13.1012252,10.2509154 13.9464082,9.86545462 C14.9598209,9.40320207 16.0001763,9.00037172 17.0294032,8.5733807 C17.1169998,8.53700908 17.2093471,8.51226071 17.3964497,8.44970414" id="Fill-4"></path>
                    </g>
                </g>
            </g>
        </g>
    </g>
</svg>