<svg width="29" height="36" viewBox="0 0 29 36" xmlns="http://www.w3.org/2000/svg">
  <title>
    delete-16
  </title>
  <defs>
    <linearGradient x1="29.747%" y1="-47.896%" x2="30.791%" y2="151.63%" id="a">
      <stop stop-color="#FF272D" offset="0%"/>
      <stop stop-color="#C42482" offset="33.53%"/>
      <stop stop-color="#4A1475" offset="100%"/>
    </linearGradient>
  </defs>
  <g transform="translate(-1056 -3609)" fill="url(#a)">
    <path d="M1066.038 3636c.616 0 1.116-.5 1.116-1.115V3621.5c0-.616-.5-1.115-1.116-1.115-.616 0-1.115.5-1.115 1.115v13.385c0 .616.5 1.115 1.115 1.115zm4.462 0c.616 0 1.115-.5 1.115-1.115V3621.5c0-.616-.5-1.115-1.115-1.115-.616 0-1.115.5-1.115 1.115v13.385c0 .616.5 1.115 1.115 1.115zm4.462 0c.616 0 1.115-.5 1.115-1.115V3621.5c0-.616-.5-1.115-1.115-1.115-.616 0-1.116.5-1.116 1.115v13.385c0 .616.5 1.115 1.116 1.115z"/>
    <path d="M1082.77 3613.692h-6.805c-.527-2.6-2.813-4.467-5.465-4.467-2.652 0-4.938 1.868-5.465 4.467h-6.804c-1.23 0-2.23 1-2.23 2.23 0 1.233 1 2.232 2.23 2.232v20.077c0 3.7 3 6.696 6.696 6.696h11.154c3.695 0 6.69-2.996 6.69-6.692v-20.076c1.23 0 2.23-1 2.23-2.23 0-1.233-1-2.232-2.23-2.232zm-12.27-2.23c1.4.014 2.643.907 3.103 2.23h-6.206c.46-1.323 1.702-2.216 3.103-2.23zm7.808 26.77c0 1.23-1 2.23-2.23 2.23h-11.155c-1.232 0-2.23-1-2.23-2.23v-20.078h15.615v20.077z"/>
  </g>
</svg>
