<svg width="35" height="36" viewBox="0 0 35 36" xmlns="http://www.w3.org/2000/svg">
  <title>
    Group 5
  </title>
  <defs>
    <linearGradient x1="100%" y1="-49.933%" x2="30.791%" y2="151.63%" id="a">
      <stop stop-color="#FF272D" offset="0%"/>
      <stop stop-color="#C42482" offset="33.53%"/>
      <stop stop-color="#4A1475" offset="100%"/>
    </linearGradient>
  </defs>
  <g fill="none" fill-rule="evenodd">
    <ellipse fill="url(#a)" cx="17.5" cy="17.545" rx="17.5" ry="17.545"/>
    <g fill="#FFF">
      <path d="M25.683 24.065c1.377-1.692 2.138-3.59 2.347-5.765-.7 0-1.383-.003-2.066 0-.364.003-.68-.105-.905-.4-.25-.327-.31-.69-.13-1.07.17-.388.48-.6.9-.607.6-.008 1.2-.002 1.8-.003h.31c-.018-1.6-1.05-4.153-2.35-5.537-.47.483-.936.973-1.415 1.447-.43.425-1.036.433-1.446.04-.43-.41-.434-1.05-.005-1.506.23-.242.467-.476.704-.712l.72-.713C22.54 7.95 20.75 7.22 18.7 7v1.54c0 .17.005.343 0 .52-.01.622-.425 1.06-1.01 1.07-.593.003-1.033-.44-1.043-1.08-.01-.595 0-1.19 0-1.786 0-.078-.01-.15-.02-.25-2.096.232-3.924 1.04-5.577 2.422.49.484.96.953 1.43 1.42.255.25.388.546.34.903-.054.41-.273.704-.66.844-.394.143-.766.075-1.072-.223-.413-.405-.82-.823-1.23-1.235-.065-.067-.135-.13-.203-.19-1.02 1.012-2.02 3.45-2.18 5.33.12.01.24.024.362.025.632.007 1.265-.01 1.895.02.485.027.84.417.9.91.06.456-.213.924-.656 1.074-.18.06-.38.072-.57.075-.64.01-1.28.002-1.958.002.213 2.093.953 3.92 2.245 5.552.08-.072.15-.13.216-.195.47-.47.93-.956 1.41-1.42.41-.39 1.023-.375 1.42.015.39.385.416 1.02.04 1.437-.9.99-1.8 1.97-2.71 2.947-.13.14-.3.244-.47.333-.23.122-.445.08-.645-.11-2.267-2.16-3.66-4.784-4.02-7.914-.505-4.385.85-8.14 4.01-11.18 2.033-1.955 4.48-3.056 7.27-3.415 5.878-.754 11.784 2.89 13.653 8.59 1.726 5.264.575 9.91-3.3 13.85-.39.396-.774.37-1.16-.038-.903-.954-1.806-1.908-2.71-2.86-.458-.482-.493-1.106-.08-1.534.43-.446 1.05-.424 1.54.065.502.5.994 1.01 1.513 1.54"/>
      <path d="M17.663 18.21c.474-.007.864-.415.85-.89-.014-.464-.4-.844-.86-.846-.472 0-.872.402-.868.875.003.47.407.87.878.86m4.58-5.46c-.422 1.02-.78 1.98-1.202 2.9-.45 1.003-.9 2.023-1.47 2.965-.9 1.483-3.02 1.43-3.93-.048-.65-1.065-.38-2.477.68-3.13.79-.49 1.64-.895 2.48-1.28 1.01-.46 2.05-.866 3.08-1.29.09-.04.18-.064.37-.127"/>
    </g>
  </g>
</svg>
