<svg width="30" height="30" viewBox="0 0 30 30" xmlns="http://www.w3.org/2000/svg">
  <title>
    Extensions
  </title>
  <defs>
    <linearGradient x1="100%" y1="0%" x2="0%" y2="100%" id="a">
      <stop stop-color="#05C8E5" offset="0%"/>
      <stop stop-color="#008BFF" offset="100%"/>
    </linearGradient>
  </defs>
  <path d="M26.906 19.875c-.77-.015-1.39-.636-1.406-1.406v-6.1c0-1.038-.84-1.877-1.875-1.877H17.53c-.77-.016-1.39-.637-1.405-1.407C16.125 7.686 18 7.63 18 5.81 18 4.19 16.312 3 14.25 3c-2.063 0-3.75 1.19-3.75 2.81 0 1.82 1.875 1.875 1.875 3.28-.015.77-.636 1.392-1.406 1.407h-6.1C3.84 10.5 3 11.34 3 12.374v4.22c.015.77.636 1.39 1.406 1.405 1.407 0 1.46-1.88 3.282-1.88 1.62 0 2.812 1.69 2.812 3.75 0 2.063-1.19 3.75-2.813 3.75-1.82 0-1.875-1.875-3.28-1.875-.77.014-1.392.635-1.407 1.405v7.97C3 32.16 3.84 33 4.875 33h6.094c.77-.015 1.39-.636 1.4-1.406 0-1.407-1.876-1.46-1.876-3.282 0-1.62 3.75-2.812 3.75-2.812S18 26.69 18 28.313c0 1.82-1.875 1.875-1.875 3.28.015.77.636 1.392 1.406 1.407h6.1c1.037 0 1.876-.84 1.876-1.875V25.03c.016-.77.637-1.39 1.407-1.405 1.407 0 1.46 1.875 3.28 1.875 1.62 0 2.81-1.688 2.81-3.75 0-2.063-1.19-3.75-2.81-3.75-1.82 0-1.874 1.875-3.28 1.875z" transform="translate(-3 -3)" fill="url(#a)"/>
</svg>
