<svg width="32" height="30" viewBox="0 0 32 30" xmlns="http://www.w3.org/2000/svg">
  <title>
    Shape
  </title>
  <defs>
    <linearGradient x1="100%" y1="0%" x2="0%" y2="100%" id="a">
      <stop stop-color="#05C8E5" offset="0%"/>
      <stop stop-color="#008BFF" offset="100%"/>
    </linearGradient>
  </defs>
  <path d="M8.01 22.875c-1.775.004-3.334 1.172-3.827 2.868 0 .02-.028.03-.034.05-.728 2.26-1.415 4.202-3.525 5.124l-.046.024-.048.027c-.326.17-.53.506-.533.872 0 .55.447.995 1 .995 3.483.24 6.93-.825 9.662-2.987.012-.012.014-.026.026-.038 1.24-1.1 1.664-2.847 1.07-4.39-.597-1.54-2.09-2.554-3.75-2.544zM31.424 3.57c-.73-.723-1.9-.763-2.68-.092L12.664 17.42c-.41.356-.652.865-.67 1.406-.02.54.19 1.065.572 1.448l2.067 2.053c.368.366.867.57 1.388.572h.068c.543-.02 1.055-.26 1.413-.67L31.517 6.237c.678-.775.638-1.94-.093-2.667z" transform="translate(0 -3)" fill="url(#a)"/>
</svg>
