<svg width="29" height="29" viewBox="0 0 29 29" xmlns="http://www.w3.org/2000/svg">
  <title>
    Shape
  </title>
  <defs>
    <linearGradient x1="100%" y1="0%" x2="0%" y2="100%" id="a">
      <stop stop-color="#05C8E5" offset="0%"/>
      <stop stop-color="#008BFF" offset="100%"/>
    </linearGradient>
  </defs>
  <path d="M1073.08 401.19c-1.105 0-2 .9-2 2.007v2.298c-3.51-3.68-8.742-5.148-13.647-3.828-4.904 1.32-8.7 5.22-9.9 10.17-.19.7.01 1.452.53 1.962.517.506 1.27.695 1.965.49.696-.207 1.226-.775 1.386-1.485 1.096-4.462 5.084-7.6 9.666-7.604 3.13-.004 6.076 1.485 7.934 4.01h-3.934c-1.105 0-2 .9-2 2.008 0 1.107.895 2.005 2 2.005h8c1.104 0 2-.898 2-2.006v-8.024c0-1.108-.896-2.006-2-2.006zm.092 15.007c-.515-.13-1.06-.048-1.515.226-.455.274-.783.718-.91 1.234-1.097 4.462-5.085 7.6-9.667 7.605-3.13.005-6.077-1.485-7.934-4.012h3.934c1.104 0 2-.898 2-2.006 0-1.108-.896-2.006-2-2.006h-8c-1.105 0-2 .898-2 2.006v8.024c0 1.108.895 2.006 2 2.006 1.104 0 2-.898 2-2.006v-2.3c3.51 3.682 8.742 5.15 13.646 3.83 4.905-1.322 8.7-5.22 9.9-10.17.267-1.074-.384-2.162-1.454-2.43z" transform="translate(-1047 -401)" fill="url(#a)"/>
</svg>
