<?xml version="1.0" encoding="UTF-8"?>
<svg width="32px" height="30px" viewBox="0 0 32 30" version="1.1" xmlns="http://www.w3.org/2000/svg" xmlns:xlink="http://www.w3.org/1999/xlink">
    <!-- Generator: Sketch 47.1 (45422) - http://www.bohemiancoding.com/sketch -->
    <title>Shape</title>
    <desc>Created with Sketch.</desc>
    <defs>
        <linearGradient x1="100%" y1="0%" x2="0%" y2="100%" id="linearGradient-1">
            <stop stop-color="#05C8E5" offset="0%"></stop>
            <stop stop-color="#008BFF" offset="100%"></stop>
        </linearGradient>
    </defs>
    <g id="Mobile-Wireframes" stroke="none" stroke-width="1" fill="none" fill-rule="evenodd">
        <g id="FF-mobile-feature_Extensions" transform="translate(-988.000000, -641.000000)" fill-rule="nonzero" fill="url(#linearGradient-1)">
            <g id="Group-4" transform="translate(988.000000, 638.000000)">
                <path d="M8.00981304,22.8750765 C6.23519333,22.8790565 4.67617041,24.0474922 4.18312486,25.7430519 C4.18312486,25.7629684 4.15509051,25.7729267 4.14908316,25.7928432 C3.42419507,28.0533655 2.73735361,29.9952238 0.62676787,30.9173576 L0.580711445,30.9412574 L0.532652567,30.9651572 C0.207392183,31.1364634 0.00285029118,31.4714483 0,31.8374997 C6.77183387e-17,32.3874785 0.448264431,32.8333245 1.00122663,32.8333245 C4.48407187,33.0737021 7.93112615,32.0078607 10.6630636,29.8458501 C10.6750783,29.8339002 10.6770808,29.8199586 10.6890955,29.8080087 C11.9289111,28.7093119 12.3551613,26.9618542 11.7593886,25.4202283 C11.163616,23.8786024 9.67032685,22.8649816 8.00981304,22.8750765 L8.00981304,22.8750765 Z M31.424499,3.57001705 C30.6931366,2.84678973 29.5247915,2.80683912 28.7452165,3.47840117 L12.6635144,17.4199483 C12.2538474,17.7760244 12.0108125,18.284999 11.9922199,18.8258033 C11.9736273,19.3666076 12.1811389,19.8909051 12.5653942,20.2739822 L14.631926,22.3273729 C15.0003494,22.6928463 15.4992807,22.8983596 16.0196261,22.8989763 L16.085707,22.8989763 C16.6294605,22.8806721 17.1412882,22.639118 17.499439,22.2317737 L31.5166119,6.23683585 C32.1950474,5.46185875 32.1548079,4.29685925 31.424499,3.57001705 L31.424499,3.57001705 Z" id="Shape"></path>
            </g>
        </g>
    </g>
</svg>