<svg width="33" height="32" viewBox="0 0 33 32" xmlns="http://www.w3.org/2000/svg">
  <title>
    Erase
  </title>
  <defs>
    <linearGradient x1="100%" y1="0%" x2="44.703%" y2="91.049%" id="a">
      <stop stop-color="#05C8E5" offset="0%"/>
      <stop stop-color="#05C5E6" offset="0%"/>
      <stop stop-color="#008BFF" offset="100%"/>
    </linearGradient>
    <linearGradient x1="70.61%" y1="-11.044%" x2="12.176%" y2="100%" id="b">
      <stop stop-color="#05C8E5" offset="0%"/>
      <stop stop-color="#05C4E7" offset="19.642%"/>
      <stop stop-color="#008BFF" offset="100%"/>
    </linearGradient>
  </defs>
  <g fill="none" fill-rule="evenodd">
    <path d="M16.124 30.183l2.06-2.076-1.783-1.795-2.056 2.074c-1.374 1.385-3.77 1.385-5.142 0L2.67 21.81c-.095-.096-.15-.23-.15-.37 0-.14.055-.274.154-.373l4.26-4.292L5.15 14.98.894 19.27C.324 19.84 0 20.63 0 21.44c0 .808.324 1.6.89 2.168l6.526 6.575C8.58 31.355 10.126 32 11.77 32c1.644 0 3.192-.645 4.354-1.817z" fill="url(#a)"/>
    <path d="M32.102 9.79L23.294.875c-1.152-1.164-3.185-1.167-4.34 0L8.08 11.882l.898.91L20.33 24.284l.9.91L32.1 14.19c.58-.59.9-1.37.9-2.2 0-.832-.32-1.613-.898-2.2z" fill="url(#b)"/>
  </g>
</svg>
